<svg xmlns="http://www.w3.org/2000/svg" width="18" height="17" viewBox="0 0 18 17" fill="none">
<path d="M15.2985 3.52566L14.3235 2.59287C14.001 2.28096 13.5735 2.125 13.1483 2.125C12.7098 2.12394 12.2883 2.29185 11.9738 2.59287L10.0403 4.44661L9.13801 5.31214L2.82751 11.3678L2.49601 14.212C2.48744 14.2966 2.49711 14.3821 2.52438 14.4628C2.55165 14.5434 2.59591 14.6175 2.65425 14.6802C2.71259 14.7429 2.7837 14.7927 2.86293 14.8264C2.94216 14.8601 3.02772 14.8769 3.11401 14.8757C3.13801 14.8757 3.16126 14.8757 3.18451 14.8728L6.14701 14.5579L12.4628 8.50074L13.365 7.63448L15.2985 5.78074C15.4521 5.6346 15.5742 5.45948 15.6576 5.26583C15.741 5.07217 15.784 4.86395 15.784 4.65357C15.784 4.44319 15.741 4.23497 15.6576 4.04131C15.5742 3.84766 15.4521 3.6718 15.2985 3.52566ZM5.57551 13.4137L3.82051 13.6015L4.01626 11.9163L10.0193 6.15844L10.8255 5.38457L12.387 6.88279L11.5808 7.6537L5.57551 13.4137ZM14.4173 4.93444L13.2675 6.03722L11.7075 4.539L12.8565 3.43548C12.936 3.36114 13.0413 3.31969 13.1509 3.31969C13.2604 3.31969 13.3658 3.36114 13.4453 3.43548L14.418 4.37122C14.4563 4.40775 14.4868 4.45151 14.5076 4.49989C14.5285 4.54827 14.5392 4.60028 14.5392 4.65283C14.5392 4.70538 14.5285 4.75739 14.5076 4.80577C14.4868 4.85415 14.4563 4.89791 14.418 4.93444H14.4173Z" fill="#BDBDBD"/>
</svg>
