<svg xmlns="http://www.w3.org/2000/svg" width="12" height="12" viewBox="0 0 12 12" fill="none">
<path fill-rule="evenodd" clip-rule="evenodd" d="M7.8 6.59922C7.8 6.24321 7.69443 5.8952 7.49665 5.59919C7.29886 5.30318 7.01774 5.07247 6.68883 4.93624C6.35992 4.8 5.998 4.76435 5.64884 4.83381C5.29967 4.90326 4.97894 5.07469 4.72721 5.32643C4.47547 5.57816 4.30404 5.89889 4.23459 6.24806C4.16513 6.59722 4.20078 6.95914 4.33702 7.28805C4.47325 7.61696 4.70397 7.89808 4.99997 8.09587C5.29598 8.29365 5.64399 8.39922 6 8.39922C6.47739 8.39922 6.93523 8.20958 7.27279 7.87201C7.61036 7.53445 7.8 7.07661 7.8 6.59922ZM6 9.59922C5.40666 9.59922 4.82664 9.42327 4.33329 9.09363C3.83994 8.76398 3.45542 8.29545 3.22836 7.74727C3.0013 7.19909 2.94189 6.59589 3.05764 6.01395C3.1734 5.43201 3.45912 4.89746 3.87868 4.4779C4.29824 4.05834 4.83279 3.77262 5.41473 3.65686C5.99667 3.54111 6.59987 3.60052 7.14805 3.82758C7.69623 4.05464 8.16476 4.43916 8.49441 4.93251C8.82405 5.42586 9 6.00588 9 6.59922C9 7.39487 8.68393 8.15793 8.12132 8.72054C7.55871 9.28315 6.79565 9.59922 6 9.59922ZM3.852 1.53522L3.45 1.91922C3.22755 2.13364 2.93096 2.25399 2.622 2.25522H1.2C0.902043 2.23707 0.608945 2.33713 0.384294 2.5337C0.159643 2.73027 0.0215593 3.00749 0 3.30522L0 9.62922C0.0200512 9.92802 0.157484 10.2068 0.382303 10.4046C0.607123 10.6024 0.901074 10.7033 1.2 10.6852H10.8C11.0989 10.7033 11.3929 10.6024 11.6177 10.4046C11.8425 10.2068 11.9799 9.92802 12 9.62922V3.30522C11.9799 3.00642 11.8425 2.72768 11.6177 2.52984C11.3929 2.332 11.0989 2.23112 10.8 2.24922H9.378C9.06904 2.24799 8.77245 2.12764 8.55 1.91322L8.148 1.52922C7.9246 1.31699 7.62813 1.19883 7.32 1.19922H4.68C4.37104 1.20045 4.07445 1.3208 3.852 1.53522Z" fill="#F3223C"/>
<mask id="mask0_1_401" style="mask-type:luminance" maskUnits="userSpaceOnUse" x="0" y="1" width="12" height="10">
<path fill-rule="evenodd" clip-rule="evenodd" d="M7.8 6.59922C7.8 6.24321 7.69443 5.8952 7.49665 5.59919C7.29886 5.30318 7.01774 5.07247 6.68883 4.93624C6.35992 4.8 5.998 4.76435 5.64884 4.83381C5.29967 4.90326 4.97894 5.07469 4.72721 5.32643C4.47547 5.57816 4.30404 5.89889 4.23459 6.24806C4.16513 6.59722 4.20078 6.95914 4.33702 7.28805C4.47325 7.61696 4.70397 7.89808 4.99997 8.09587C5.29598 8.29365 5.64399 8.39922 6 8.39922C6.47739 8.39922 6.93523 8.20958 7.27279 7.87201C7.61036 7.53445 7.8 7.07661 7.8 6.59922ZM6 9.59922C5.40666 9.59922 4.82664 9.42327 4.33329 9.09363C3.83994 8.76398 3.45542 8.29545 3.22836 7.74727C3.0013 7.19909 2.94189 6.59589 3.05764 6.01395C3.1734 5.43201 3.45912 4.89746 3.87868 4.4779C4.29824 4.05834 4.83279 3.77262 5.41473 3.65686C5.99667 3.54111 6.59987 3.60052 7.14805 3.82758C7.69623 4.05464 8.16476 4.43916 8.49441 4.93251C8.82405 5.42586 9 6.00588 9 6.59922C9 7.39487 8.68393 8.15793 8.12132 8.72054C7.55871 9.28315 6.79565 9.59922 6 9.59922ZM3.852 1.53522L3.45 1.91922C3.22755 2.13364 2.93096 2.25399 2.622 2.25522H1.2C0.902043 2.23707 0.608945 2.33713 0.384294 2.5337C0.159643 2.73027 0.0215593 3.00749 0 3.30522L0 9.62922C0.0200512 9.92802 0.157484 10.2068 0.382303 10.4046C0.607123 10.6024 0.901074 10.7033 1.2 10.6852H10.8C11.0989 10.7033 11.3929 10.6024 11.6177 10.4046C11.8425 10.2068 11.9799 9.92802 12 9.62922V3.30522C11.9799 3.00642 11.8425 2.72768 11.6177 2.52984C11.3929 2.332 11.0989 2.23112 10.8 2.24922H9.378C9.06904 2.24799 8.77245 2.12764 8.55 1.91322L8.148 1.52922C7.9246 1.31699 7.62813 1.19883 7.32 1.19922H4.68C4.37104 1.20045 4.07445 1.3208 3.852 1.53522Z" fill="white"/>
</mask>
<g mask="url(#mask0_1_401)">
<path d="M0 0H12V12H0V0Z" fill="white"/>
</g>
</svg>
