<svg width="25" height="25" viewBox="0 0 25 25" fill="none" xmlns="http://www.w3.org/2000/svg">
<path d="M9.00003 9L9.00003 5.5C9.00003 3.567 10.567 2 12.5 2V2C14.433 2 16 3.567 16 5.5L16 9" stroke="#BDBDBD" stroke-width="1.5" stroke-linecap="round"/>
<path d="M4.72228 10.7643C4.82754 8.98105 4.88017 8.08943 5.45799 7.54472C6.0358 7 6.92898 7 8.71533 7H16.2847C18.0711 7 18.9643 7 19.5421 7.54472C20.1199 8.08943 20.1725 8.98106 20.2778 10.7643L20.875 20.8822C20.9336 21.8753 20.963 22.3719 20.6669 22.686C20.3709 23 19.8734 23 18.8785 23H6.12157C5.12666 23 4.62921 23 4.33316 22.686C4.03711 22.3719 4.06642 21.8753 4.12504 20.8821L4.72228 10.7643Z" fill="#BDBDBD"/>
</svg>
